# xmcd
# Copyright (C) 1995-1998 Ti Kan
#
# Track frame offsets:
#       150
#       22106
#       44492
#       64999
#       83189
#       101098
#       109888
#       128797
#       151016
#       173170
#       187631
#       204856
#       227218
#       241278
#       261127
#       280835
#
# Disc length: 3945 seconds
#
# Revision: 0
# Processed by: cddbd v1.5.1PL2 Copyright (c) Steve Scherf et al.
# Submitted via: CD-Transfer v1.0
#
DISCID=d50f6710
DTITLE=Iaco Rigo and His Ethnical Project - Pulsaziuns
DYEAR=06
DGENRE=
TTITLE0=Táchete Al Tram
TTITLE1=Tera
TTITLE2=Did Adascusc
TTITLE3=Venezia, Pesc Y Merlot
TTITLE4=Le Picio Pesc
TTITLE5=Altonn
TTITLE6=Aspeté
TTITLE7=Amisc
TTITLE8=Cancun
TTITLE9=Le Lé Co N' É Nia
TTITLE10=La Mama
TTITLE11=Fanes
TTITLE12=Rödena
TTITLE13=En Chel Dé
TTITLE14=L Ti Scrii Aal Picio Bambin
TTITLE15=Lolan
EXTD=
EXTT0=
EXTT1=
EXTT2=
EXTT3=
EXTT4=
EXTT5=
EXTT6=
EXTT7=
EXTT8=
EXTT9=
EXTT10=
EXTT11=
EXTT12=
EXTT13=
EXTT14=
EXTT15=
PLAYORDER=
